<svg width="373" height="446" viewBox="0 0 373 446" fill="none" xmlns="http://www.w3.org/2000/svg">
<path d="M62.7475 2.8705C55.8141 5.93717 50.4808 10.7372 46.3475 17.4039C43.9475 21.1372 42 23.4667 42 32C42 41.3333 43.9475 44.2039 47.1475 49.6705C56.0808 64.8705 75.1475 70.7372 90.4808 62.8705C95.4141 60.3372 104.881 51.1372 107.814 45.9372C109.147 43.4038 111.547 43.4038 228.347 43.8038L343.046 44.1892C345.831 44.1985 348.486 45.3689 350.372 47.4186L350.481 47.5372C353.281 50.7372 353.414 51.9372 353.414 74.7372C353.414 100.47 352.614 104.337 346.881 106.604C344.747 107.404 316.747 107.804 271.414 107.804C201.814 107.671 199.147 107.671 193.281 110.337C186.081 113.537 178.347 122.471 176.214 130.071C174.347 136.737 174.347 173.804 176.081 180.204C176.881 182.871 179.814 187.804 182.881 191.271C191.547 201.137 193.681 201.404 250.347 201.404H294.739C297.391 201.404 299.934 202.457 301.81 204.333L302.214 204.737L302.556 205.079C304.468 206.991 305.524 209.597 305.484 212.301L305.147 234.604C304.747 258.471 304.481 261.404 302.214 263.937C299.681 266.737 298.747 266.737 251.414 266.737C199.014 266.737 195.014 267.137 185.814 274.07C183.281 276.07 179.681 280.871 177.947 284.604C175.014 290.871 174.747 293.004 174.747 312.737C174.747 324.47 175.414 336.337 176.214 339.137C178.081 345.804 184.747 353.271 192.081 356.604C197.814 359.271 200.614 359.404 273.147 360.071L344.266 360.701C346.847 360.724 349.279 361.914 350.881 363.937V363.937C353.147 366.737 353.414 369.404 353.414 393.004C353.414 418.737 353.414 418.87 350.081 422.07L349.832 422.329C347.947 424.293 345.342 425.404 342.619 425.404H218.347C93.6808 425.404 89.5475 425.27 86.6141 422.87V422.87C84.5909 421.269 83.4027 418.836 83.3829 416.256L83.0141 368.07C82.7475 333.804 83.1475 315.271 84.0808 314.204C84.7475 313.271 87.9475 311.804 91.0141 310.87C102.481 307.404 111.547 301.537 117.414 293.671C128.347 279.004 129.147 275.804 142.347 196.07C147.147 166.737 147.414 146.204 143.014 137.137C139.147 129.404 120.081 107.937 115.147 105.804C109.947 103.537 102.481 103.671 99.1475 106.071C97.4141 107.271 95.5475 110.471 94.7475 113.404C91.8141 124.071 98.0808 130.47 113.681 132.87C121.681 134.07 123.681 135.404 126.614 141.137C132.614 153.004 131.947 160.871 115.414 256.737C112.614 273.137 107.014 284.47 99.1475 289.404C90.8808 294.737 77.4141 296.871 65.9475 294.737C53.8141 292.471 47.5475 287.537 42.4808 276.47C38.6141 267.804 31.0141 238.471 24.7475 207.404C23.0141 198.604 20.3475 185.404 18.7475 178.071C15.1475 161.404 15.6808 149.404 20.4808 141.804C23.4141 137.137 24.6141 136.47 32.2141 135.004C42.6141 132.87 46.4808 130.47 48.7475 124.87C52.0808 116.87 46.0808 105.404 38.4808 105.404C32.7475 105.404 23.2808 111.004 18.0808 117.537C-2.31919 143.004 -3.78586 151.804 5.41414 193.404C5.94747 195.937 8.21414 207.004 10.4808 218.07C24.0808 285.004 30.2141 298.204 52.0808 307.671C56.0808 309.404 60.3475 311.404 61.4141 311.937C63.1475 312.87 63.5475 321.004 64.0808 368.87L64.714 421.934C64.7359 423.767 65.2615 425.56 66.2333 427.115L68.0808 430.07C71.8141 436.204 73.4141 437.67 80.7475 441.804L83.8401 443.505C85.3102 444.313 86.9602 444.739 88.6381 444.743L212.081 445.004C281.414 445.137 341.681 444.737 345.947 444.07C356.614 442.47 363.681 437.404 368.481 428.204C372.081 421.004 372.081 420.87 372.081 392.604V366.816C372.081 365.188 371.683 363.585 370.923 362.145L368.347 357.271C363.814 348.471 356.614 343.27 346.881 341.404C342.614 340.604 311.281 340.071 270.214 340.071C211.681 340.071 200.214 339.804 197.947 338.204C195.547 336.471 195.014 334.337 194.347 323.804C193.547 308.737 194.881 291.404 197.147 289.137C198.481 287.804 211.147 287.271 250.481 286.737C307.014 286.071 305.947 286.204 315.147 277.537C323.414 269.937 324.081 267.004 324.081 235.804C324.081 220.204 323.547 205.271 322.747 202.737C322.081 200.204 319.547 195.804 317.147 192.87C309.414 183.404 309.547 183.537 251.681 182.737L203.895 182.123C201.313 182.09 198.884 180.895 197.281 178.87V178.87C195.014 176.07 194.747 173.404 194.747 154.071C194.747 133.804 194.881 132.337 197.547 129.937C200.214 127.537 203.947 127.404 275.947 126.737C350.081 126.071 351.547 126.07 356.747 123.137C363.414 119.537 367.281 115.537 369.947 108.87C371.681 104.737 372.081 98.3372 372.081 76.3372C372.081 59.8038 371.547 47.0038 370.614 43.9372C368.481 37.2705 362.481 29.9372 355.681 26.3372L352.255 24.5428C350.827 23.7946 349.239 23.4029 347.626 23.4011L229.547 23.2705C121.547 23.0039 108.881 22.8705 107.814 21.0038C97.8141 2.8705 79.1475 -4.59617 62.7475 2.8705ZM83.5475 21.2705C89.1475 24.7372 91.5475 31.6705 89.4141 38.2038C88.0808 41.9372 86.4808 43.5372 81.8141 45.6705C76.0808 48.2039 75.8141 48.2038 71.0141 45.8038C60.6141 40.7372 59.1475 27.0039 68.4808 21.4039C73.8141 18.0705 78.2141 18.0705 83.5475 21.2705Z" fill="black"/>
</svg>
